<svg xmlns="http://www.w3.org/2000/svg" viewBox="0 0 100 100" preserveAspectRatio="xMidYMid" width="150" height="150" style="shape-rendering: auto; display: block; background: transparent;" xmlns:xlink="http://www.w3.org/1999/xlink"><g><g transform="rotate(0 50 50)">
  <rect fill="#0a64fa" height="8" width="3" ry="1.12" rx="1.12" y="29" x="48.5">
    <animate repeatCount="indefinite" begin="-0.8843537414965986s" dur="0.9523809523809523s" keyTimes="0;1" values="1;0" attributeName="opacity"></animate>
  </rect>
</g><g transform="rotate(25.714285714285715 50 50)">
  <rect fill="#0a64fa" height="8" width="3" ry="1.12" rx="1.12" y="29" x="48.5">
    <animate repeatCount="indefinite" begin="-0.8163265306122448s" dur="0.9523809523809523s" keyTimes="0;1" values="1;0" attributeName="opacity"></animate>
  </rect>
</g><g transform="rotate(51.42857142857143 50 50)">
  <rect fill="#0a64fa" height="8" width="3" ry="1.12" rx="1.12" y="29" x="48.5">
    <animate repeatCount="indefinite" begin="-0.7482993197278911s" dur="0.9523809523809523s" keyTimes="0;1" values="1;0" attributeName="opacity"></animate>
  </rect>
</g><g transform="rotate(77.14285714285714 50 50)">
  <rect fill="#0a64fa" height="8" width="3" ry="1.12" rx="1.12" y="29" x="48.5">
    <animate repeatCount="indefinite" begin="-0.6802721088435374s" dur="0.9523809523809523s" keyTimes="0;1" values="1;0" attributeName="opacity"></animate>
  </rect>
</g><g transform="rotate(102.85714285714286 50 50)">
  <rect fill="#0a64fa" height="8" width="3" ry="1.12" rx="1.12" y="29" x="48.5">
    <animate repeatCount="indefinite" begin="-0.6122448979591836s" dur="0.9523809523809523s" keyTimes="0;1" values="1;0" attributeName="opacity"></animate>
  </rect>
</g><g transform="rotate(128.57142857142858 50 50)">
  <rect fill="#0a64fa" height="8" width="3" ry="1.12" rx="1.12" y="29" x="48.5">
    <animate repeatCount="indefinite" begin="-0.5442176870748299s" dur="0.9523809523809523s" keyTimes="0;1" values="1;0" attributeName="opacity"></animate>
  </rect>
</g><g transform="rotate(154.28571428571428 50 50)">
  <rect fill="#0a64fa" height="8" width="3" ry="1.12" rx="1.12" y="29" x="48.5">
    <animate repeatCount="indefinite" begin="-0.47619047619047616s" dur="0.9523809523809523s" keyTimes="0;1" values="1;0" attributeName="opacity"></animate>
  </rect>
</g><g transform="rotate(180 50 50)">
  <rect fill="#0a64fa" height="8" width="3" ry="1.12" rx="1.12" y="29" x="48.5">
    <animate repeatCount="indefinite" begin="-0.4081632653061224s" dur="0.9523809523809523s" keyTimes="0;1" values="1;0" attributeName="opacity"></animate>
  </rect>
</g><g transform="rotate(205.71428571428572 50 50)">
  <rect fill="#0a64fa" height="8" width="3" ry="1.12" rx="1.12" y="29" x="48.5">
    <animate repeatCount="indefinite" begin="-0.3401360544217687s" dur="0.9523809523809523s" keyTimes="0;1" values="1;0" attributeName="opacity"></animate>
  </rect>
</g><g transform="rotate(231.42857142857142 50 50)">
  <rect fill="#0a64fa" height="8" width="3" ry="1.12" rx="1.12" y="29" x="48.5">
    <animate repeatCount="indefinite" begin="-0.27210884353741494s" dur="0.9523809523809523s" keyTimes="0;1" values="1;0" attributeName="opacity"></animate>
  </rect>
</g><g transform="rotate(257.14285714285717 50 50)">
  <rect fill="#0a64fa" height="8" width="3" ry="1.12" rx="1.12" y="29" x="48.5">
    <animate repeatCount="indefinite" begin="-0.2040816326530612s" dur="0.9523809523809523s" keyTimes="0;1" values="1;0" attributeName="opacity"></animate>
  </rect>
</g><g transform="rotate(282.85714285714283 50 50)">
  <rect fill="#0a64fa" height="8" width="3" ry="1.12" rx="1.12" y="29" x="48.5">
    <animate repeatCount="indefinite" begin="-0.13605442176870747s" dur="0.9523809523809523s" keyTimes="0;1" values="1;0" attributeName="opacity"></animate>
  </rect>
</g><g transform="rotate(308.57142857142856 50 50)">
  <rect fill="#0a64fa" height="8" width="3" ry="1.12" rx="1.12" y="29" x="48.5">
    <animate repeatCount="indefinite" begin="-0.06802721088435373s" dur="0.9523809523809523s" keyTimes="0;1" values="1;0" attributeName="opacity"></animate>
  </rect>
</g><g transform="rotate(334.2857142857143 50 50)">
  <rect fill="#0a64fa" height="8" width="3" ry="1.12" rx="1.12" y="29" x="48.5">
    <animate repeatCount="indefinite" begin="0s" dur="0.9523809523809523s" keyTimes="0;1" values="1;0" attributeName="opacity"></animate>
  </rect>
</g><g></g></g><!-- [ldio] generated by https://loading.io --></svg>